<svg width="86" height="16" viewBox="0 0 86 16" fill="none" xmlns="http://www.w3.org/2000/svg">
<g id="Component 29">
<path id="Path 635" fill-rule="evenodd" clip-rule="evenodd" d="M8.78512 0.85999C8.28923 0.624795 7.71396 0.624795 7.21808 0.859989C6.87479 1.02281 6.63127 1.33101 6.4155 1.67934C6.19856 2.02957 5.96054 2.50562 5.66414 3.09844L5.66413 3.09846L5.65252 3.12168L5.41363 3.59947C5.21038 4.00597 5.15127 4.1125 5.07707 4.19017C5.00053 4.27028 4.90875 4.33428 4.80712 4.37841C4.70859 4.42118 4.5882 4.43982 4.1365 4.49001L3.91964 4.51411L3.89361 4.517H3.8936C3.18154 4.59611 2.61271 4.65931 2.18206 4.74691C1.75734 4.8333 1.36151 4.96118 1.08443 5.24388C0.688 5.64835 0.501367 6.2137 0.579079 6.7747C0.633394 7.16678 0.875282 7.50522 1.1651 7.82751C1.45896 8.15424 1.87836 8.54375 2.40338 9.03126L2.42256 9.04908L2.65151 9.26165C3.04921 9.63094 3.15118 9.7354 3.20831 9.84664C3.26729 9.96154 3.29871 10.0885 3.30006 10.2177C3.30138 10.3425 3.25903 10.485 3.0769 11.0041L3.06829 11.0287L3.06827 11.0287C2.7995 11.7947 2.58665 12.4014 2.46579 12.8733C2.34839 13.3318 2.28261 13.782 2.43567 14.1718C2.65104 14.7204 3.11764 15.1316 3.68898 15.2762C4.09384 15.3787 4.52833 15.2593 4.96445 15.0873C5.41216 14.9107 5.97908 14.6272 6.69387 14.2698L6.71728 14.2581L7.27307 13.9802C7.6478 13.7928 7.75013 13.7467 7.84834 13.7283C7.9496 13.7093 8.05359 13.7093 8.15486 13.7283C8.25306 13.7467 8.35539 13.7928 8.73013 13.9802L9.28592 14.2581L9.30939 14.2698C10.0242 14.6272 10.591 14.9107 11.0387 15.0873C11.4748 15.2593 11.9093 15.3787 12.3142 15.2762C12.8855 15.1316 13.3522 14.7204 13.5675 14.1718C13.7206 13.782 13.6548 13.3318 13.5374 12.8733C13.4165 12.4014 13.2037 11.7947 12.9349 11.0287V11.0286L12.9263 11.0041C12.7442 10.485 12.7018 10.3425 12.7031 10.2177C12.7045 10.0885 12.7359 9.96154 12.7949 9.84664C12.852 9.7354 12.954 9.63094 13.3517 9.26165L13.5806 9.04908L13.5998 9.03119C14.1249 8.54368 14.5443 8.15424 14.8381 7.82751C15.1279 7.50522 15.3698 7.16678 15.4241 6.7747C15.5019 6.2137 15.3152 5.64835 14.9187 5.24388C14.6417 4.96118 14.2459 4.8333 13.8211 4.74691C13.3905 4.65931 12.8217 4.59611 12.1096 4.517L12.0835 4.51411L11.8667 4.49001C11.415 4.43982 11.2946 4.42118 11.1961 4.37841C11.0944 4.33428 11.0027 4.27028 10.9262 4.19017C10.852 4.1125 10.7928 4.00597 10.5896 3.59946L10.3507 3.12168L10.3391 3.09845C10.0426 2.50562 9.80467 2.02957 9.58772 1.67934C9.37196 1.33101 9.12847 1.02281 8.78512 0.85999Z" fill="#FFC250"/>
<path id="Path 636" fill-rule="evenodd" clip-rule="evenodd" d="M26.4248 0.85999C25.9289 0.624795 25.3536 0.624795 24.8577 0.859989C24.5144 1.02281 24.2709 1.33101 24.0551 1.67934C23.8382 2.02957 23.6002 2.50562 23.3038 3.09844L23.3038 3.09846L23.2922 3.12168L23.0533 3.59947C22.85 4.00597 22.7909 4.1125 22.7167 4.19017C22.6402 4.27028 22.5484 4.33428 22.4468 4.37841C22.3482 4.42118 22.2278 4.43982 21.7761 4.49001L21.5593 4.51411L21.5333 4.517H21.5333C20.8212 4.59611 20.2524 4.65931 19.8217 4.74691C19.397 4.8333 19.0012 4.96118 18.7241 5.24388C18.3276 5.64835 18.141 6.2137 18.2187 6.7747C18.273 7.16678 18.5149 7.50522 18.8047 7.82751C19.0986 8.15424 19.518 8.54375 20.043 9.03126L20.0622 9.04908L20.2912 9.26165C20.6889 9.63094 20.7908 9.7354 20.848 9.84664C20.9069 9.96154 20.9384 10.0885 20.9397 10.2177C20.941 10.3425 20.8987 10.485 20.7165 11.0041L20.7079 11.0287L20.7079 11.0287C20.4391 11.7947 20.2263 12.4014 20.1054 12.8733C19.988 13.3318 19.9223 13.782 20.0753 14.1718C20.2907 14.7204 20.7573 15.1316 21.3286 15.2762C21.7335 15.3787 22.168 15.2593 22.6041 15.0873C23.0518 14.9107 23.6187 14.6272 24.3335 14.2698L24.3569 14.2581L24.9127 13.9802C25.2875 13.7928 25.3898 13.7467 25.488 13.7283C25.5893 13.7093 25.6932 13.7093 25.7945 13.7283C25.8927 13.7467 25.995 13.7928 26.3698 13.9802L26.9256 14.2581L26.949 14.2698C27.6638 14.6272 28.2307 14.9107 28.6784 15.0873C29.1145 15.2593 29.549 15.3787 29.9538 15.2762C30.5252 15.1316 30.9918 14.7204 31.2072 14.1718C31.3602 13.782 31.2944 13.3318 31.1771 12.8733C31.0562 12.4014 30.8434 11.7947 30.5745 11.0287V11.0286L30.566 11.0041C30.3838 10.485 30.3415 10.3425 30.3427 10.2177C30.3441 10.0885 30.3755 9.96154 30.4346 9.84664C30.4917 9.7354 30.5936 9.63094 30.9914 9.26165L31.2203 9.04908L31.2395 9.03119C31.7645 8.54368 32.1839 8.15424 32.4777 7.82751C32.7676 7.50522 33.0095 7.16678 33.0638 6.7747C33.1415 6.2137 32.9549 5.64835 32.5584 5.24388C32.2813 4.96118 31.8855 4.8333 31.4608 4.74691C31.0301 4.65931 30.4613 4.59611 29.7493 4.517L29.7232 4.51411L29.5064 4.49001C29.0546 4.43982 28.9342 4.42118 28.8358 4.37841C28.7341 4.33428 28.6423 4.27028 28.5658 4.19017C28.4916 4.1125 28.4325 4.00597 28.2292 3.59946L27.9903 3.12168L27.9787 3.09845C27.6823 2.50562 27.4443 2.02957 27.2274 1.67934C27.0116 1.33101 26.7681 1.02281 26.4248 0.85999Z" fill="#FFC250"/>
<path id="Path 637" fill-rule="evenodd" clip-rule="evenodd" d="M44.0644 0.85999C43.5685 0.624795 42.9933 0.624795 42.4974 0.859989C42.1541 1.02281 41.9106 1.33101 41.6948 1.67934C41.4779 2.02957 41.2398 2.50562 40.9434 3.09844L40.9434 3.09846L40.9318 3.12168L40.6929 3.59947C40.4897 4.00597 40.4306 4.1125 40.3564 4.19017C40.2798 4.27028 40.188 4.33428 40.0864 4.37841C39.9879 4.42118 39.8675 4.43982 39.4158 4.49001L39.1989 4.51411L39.1729 4.517H39.1729C38.4608 4.59611 37.892 4.65931 37.4614 4.74691C37.0366 4.8333 36.6408 4.96118 36.3637 5.24388C35.9673 5.64835 35.7807 6.2137 35.8584 6.7747C35.9127 7.16678 36.1546 7.50522 36.4444 7.82751C36.7383 8.15424 37.1577 8.54375 37.6827 9.03126L37.7019 9.04908L37.9308 9.26165C38.3285 9.63094 38.4305 9.7354 38.4876 9.84664C38.5466 9.96154 38.578 10.0885 38.5794 10.2177C38.5807 10.3425 38.5383 10.485 38.3562 11.0041L38.3476 11.0287L38.3476 11.0287C38.0788 11.7947 37.8659 12.4014 37.7451 12.8733C37.6277 13.3318 37.5619 13.782 37.715 14.1718C37.9303 14.7204 38.3969 15.1316 38.9683 15.2762C39.3731 15.3787 39.8076 15.2593 40.2437 15.0873C40.6915 14.9107 41.2584 14.6272 41.9732 14.2698L41.9966 14.2581L42.5524 13.9802C42.9271 13.7928 43.0294 13.7467 43.1276 13.7283C43.2289 13.7093 43.3329 13.7093 43.4342 13.7283C43.5324 13.7467 43.6347 13.7928 44.0094 13.9802L44.5652 14.2581L44.5887 14.2698C45.3035 14.6272 45.8703 14.9107 46.318 15.0873C46.7541 15.2593 47.1886 15.3787 47.5935 15.2762C48.1648 15.1316 48.6315 14.7204 48.8468 14.1718C48.9999 13.782 48.9341 13.3318 48.8167 12.8733C48.6958 12.4014 48.483 11.7947 48.2142 11.0287V11.0286L48.2056 11.0041C48.0235 10.485 47.9811 10.3425 47.9824 10.2177C47.9838 10.0885 48.0152 9.96154 48.0742 9.84664C48.1313 9.7354 48.2333 9.63094 48.631 9.26165L48.8599 9.04908L48.8791 9.03119C49.4042 8.54368 49.8236 8.15424 50.1174 7.82751C50.4072 7.50522 50.6491 7.16678 50.7034 6.7747C50.7812 6.2137 50.5945 5.64835 50.198 5.24388C49.921 4.96118 49.5252 4.8333 49.1004 4.74691C48.6698 4.65931 48.1009 4.59611 47.3889 4.517L47.3628 4.51411L47.146 4.49001C46.6943 4.43982 46.5739 4.42118 46.4754 4.37841C46.3737 4.33428 46.282 4.27028 46.2055 4.19017C46.1313 4.1125 46.0721 4.00597 45.8689 3.59946L45.63 3.12168L45.6183 3.09845C45.3219 2.50562 45.084 2.02957 44.867 1.67934C44.6513 1.33101 44.4078 1.02281 44.0644 0.85999Z" fill="#FFC250"/>
<path id="Path 638" fill-rule="evenodd" clip-rule="evenodd" d="M61.7041 0.85999C61.2082 0.624795 60.6329 0.624795 60.137 0.859989C59.7937 1.02281 59.5502 1.33101 59.3344 1.67934C59.1175 2.02957 58.8795 2.50562 58.5831 3.09844L58.5831 3.09846L58.5715 3.12168L58.3326 3.59947C58.1293 4.00597 58.0702 4.1125 57.996 4.19017C57.9195 4.27028 57.8277 4.33428 57.7261 4.37841C57.6275 4.42118 57.5071 4.43982 57.0554 4.49001L56.8386 4.51411L56.8126 4.517H56.8126C56.1005 4.59611 55.5317 4.65931 55.101 4.74691C54.6763 4.8333 54.2805 4.96118 54.0034 5.24388C53.6069 5.64835 53.4203 6.2137 53.498 6.7747C53.5523 7.16678 53.7942 7.50522 54.084 7.82751C54.3779 8.15424 54.7973 8.54375 55.3223 9.03126L55.3415 9.04908L55.5705 9.26165C55.9682 9.63094 56.0701 9.7354 56.1273 9.84664C56.1862 9.96154 56.2177 10.0885 56.219 10.2177C56.2203 10.3425 56.178 10.485 55.9958 11.0041L55.9872 11.0287L55.9872 11.0287C55.7184 11.7947 55.5056 12.4014 55.3847 12.8733C55.2673 13.3318 55.2016 13.782 55.3546 14.1718C55.57 14.7204 56.0366 15.1316 56.6079 15.2762C57.0128 15.3787 57.4473 15.2593 57.8834 15.0873C58.3311 14.9107 58.898 14.6272 59.6128 14.2698L59.6362 14.2581L60.192 13.9802C60.5668 13.7928 60.6691 13.7467 60.7673 13.7283C60.8685 13.7093 60.9725 13.7093 61.0738 13.7283C61.172 13.7467 61.2743 13.7928 61.6491 13.9802L62.2049 14.2581L62.2283 14.2698C62.9431 14.6272 63.51 14.9107 63.9577 15.0873C64.3938 15.2593 64.8283 15.3787 65.2331 15.2762C65.8045 15.1316 66.2711 14.7204 66.4865 14.1718C66.6395 13.782 66.5737 13.3318 66.4564 12.8733C66.3355 12.4014 66.1226 11.7947 65.8538 11.0287V11.0286L65.8453 11.0041C65.6631 10.485 65.6208 10.3425 65.622 10.2177C65.6234 10.0885 65.6548 9.96154 65.7139 9.84664C65.771 9.7354 65.8729 9.63094 66.2707 9.26165L66.4996 9.04908L66.5188 9.03119C67.0438 8.54368 67.4632 8.15424 67.757 7.82751C68.0469 7.50522 68.2888 7.16678 68.3431 6.7747C68.4208 6.2137 68.2342 5.64835 67.8377 5.24388C67.5606 4.96118 67.1648 4.8333 66.7401 4.74691C66.3094 4.65931 65.7406 4.59611 65.0286 4.517L65.0025 4.51411L64.7857 4.49001C64.3339 4.43982 64.2135 4.42118 64.1151 4.37841C64.0134 4.33428 63.9216 4.27028 63.8451 4.19017C63.7709 4.1125 63.7118 4.00597 63.5085 3.59946L63.2696 3.12168L63.258 3.09845C62.9616 2.50562 62.7236 2.02957 62.5067 1.67934C62.2909 1.33101 62.0474 1.02281 61.7041 0.85999Z" fill="#FFC250"/>
<path id="Path 639" fill-rule="evenodd" clip-rule="evenodd" d="M79.3437 0.85999C78.8478 0.624795 78.2726 0.624795 77.7767 0.859989C77.4334 1.02281 77.1899 1.33101 76.9741 1.67934C76.7572 2.02957 76.5191 2.50562 76.2227 3.09844L76.2227 3.09846L76.2111 3.12168L75.9722 3.59947C75.769 4.00597 75.7099 4.1125 75.6357 4.19017C75.5591 4.27028 75.4673 4.33428 75.3657 4.37841C75.2672 4.42118 75.1468 4.43982 74.6951 4.49001L74.4782 4.51411L74.4522 4.517H74.4522C73.7401 4.59611 73.1713 4.65931 72.7407 4.74691C72.3159 4.8333 71.9201 4.96118 71.643 5.24388C71.2466 5.64835 71.06 6.2137 71.1377 6.7747C71.192 7.16678 71.4339 7.50522 71.7237 7.82751C72.0176 8.15424 72.437 8.54375 72.962 9.03126L72.9812 9.04908L73.2101 9.26165C73.6078 9.63094 73.7098 9.7354 73.7669 9.84664C73.8259 9.96154 73.8573 10.0885 73.8587 10.2177C73.86 10.3425 73.8176 10.485 73.6355 11.0041L73.6269 11.0287L73.6269 11.0287C73.3581 11.7947 73.1452 12.4014 73.0244 12.8733C72.907 13.3318 72.8412 13.782 72.9943 14.1718C73.2096 14.7204 73.6762 15.1316 74.2476 15.2762C74.6524 15.3787 75.0869 15.2593 75.523 15.0873C75.9708 14.9107 76.5377 14.6272 77.2525 14.2698L77.2759 14.2581L77.8317 13.9802C78.2064 13.7928 78.3087 13.7467 78.4069 13.7283C78.5082 13.7093 78.6122 13.7093 78.7135 13.7283C78.8117 13.7467 78.914 13.7928 79.2887 13.9802L79.8445 14.2581L79.868 14.2698C80.5827 14.6272 81.1496 14.9107 81.5973 15.0873C82.0334 15.2593 82.4679 15.3787 82.8728 15.2762C83.4441 15.1316 83.9108 14.7204 84.1261 14.1718C84.2792 13.782 84.2134 13.3318 84.096 12.8733C83.9751 12.4014 83.7623 11.7947 83.4935 11.0287V11.0286L83.4849 11.0041C83.3028 10.485 83.2604 10.3425 83.2617 10.2177C83.2631 10.0885 83.2945 9.96154 83.3535 9.84664C83.4106 9.7354 83.5126 9.63094 83.9103 9.26165L84.1392 9.04908L84.1584 9.03119C84.6834 8.54368 85.1029 8.15424 85.3967 7.82751C85.6865 7.50522 85.9284 7.16678 85.9827 6.7747C86.0605 6.2137 85.8738 5.64835 85.4773 5.24388C85.2003 4.96118 84.8045 4.8333 84.3797 4.74691C83.9491 4.65931 83.3802 4.59611 82.6682 4.517L82.6421 4.51411L82.4253 4.49001C81.9736 4.43982 81.8532 4.42118 81.7547 4.37841C81.653 4.33428 81.5613 4.27028 81.4848 4.19017C81.4105 4.1125 81.3514 4.00597 81.1482 3.59946L80.9093 3.12168L80.8976 3.09845C80.6012 2.50562 80.3633 2.02957 80.1463 1.67934C79.9305 1.33101 79.6871 1.02281 79.3437 0.85999Z" fill="#FFC250"/>
</g>
</svg>
